Coordinates
version=1
nRows=10
nColumns=40
inDegrees=yes

Units are S.I. units (second, meters, Newtons, ...)
Angles are in degrees.

endheader
time	pelvis_tilt	pelvis_list	pelvis_rotation	pelvis_tx	pelvis_ty	pelvis_tz	hip_flexion_r	hip_adduction_r	hip_rotation_r	knee_angle_r	knee_angle_r_beta	ankle_angle_r	subtalar_angle_r	mtp_angle_r	hip_flexion_l	hip_adduction_l	hip_rotation_l	knee_angle_l	knee_angle_l_beta	ankle_angle_l	subtalar_angle_l	mtp_angle_l	lumbar_extension	lumbar_bending	lumbar_rotation	arm_flex_r	arm_add_r	arm_rot_r	elbow_flex_r	pro_sup_r	wrist_flex_r	wrist_dev_r	arm_flex_l	arm_add_l	arm_rot_l	elbow_flex_l	pro_sup_l	wrist_flex_l	wrist_dev_l
     12.83500000	     -3.60103880	     -4.15551997	    -13.96897646	      0.91501666	      0.92885172	      0.46408868	     26.57403902	      0.82784201	     -4.21060826	     25.42869357	     25.42869357	      6.92687135	     -2.29514709	     -0.60670184	      6.10960074	     -1.35774557	    -11.50746778	     20.03658637	     20.03658637	     19.77549107	    -17.07907118	      7.68852945	    -11.62519555	      9.77216190	      1.08958174	    -18.92751398	    -10.76997219	    -25.59285782	     24.23671262	     47.38236167	      0.00000000	      0.00000000	     37.05544882	    -27.53295159	     -0.10328757	     66.06873267	     47.38083943	      0.00000000	      0.00000000
     12.85621429	     -3.61977626	     -3.89958353	    -14.53416370	      0.91380716	      0.92791821	      0.46690667	     26.07499765	      0.72650002	     -5.36621004	     22.41235964	     22.41235964	      6.73416792	      1.63868625	      0.53697597	      5.46839327	     -1.15747478	    -12.18604218	     19.54773864	     19.54773864	     19.84046597	    -16.84306651	      6.96145996	    -11.69119632	      9.49813237	      1.30686493	    -19.67622489	    -10.51154492	    -25.77781844	     24.70473451	     47.35687391	      0.00000000	      0.00000000	     38.59016921	    -27.93093199	     -1.09294438	     67.81522866	     47.49867119	      0.00000000	      0.00000000
     12.87742857	     -3.74248049	     -3.78456635	    -15.01430601	      0.91283859	      0.92671455	      0.47000544	     25.58294501	      0.96510660	     -5.95304658	     19.83618248	     19.83618248	      6.16218417	      3.77451957	      1.48989703	      5.03534633	     -1.15688120	    -12.65754664	     19.34067499	     19.34067499	     20.07049747	    -16.77612026	      6.51507347	    -11.58475223	      9.44404382	      1.40667991	    -20.00264376	    -10.34996250	    -25.85177615	     24.90518193	     47.34437623	      0.00000000	      0.00000000	     39.90803717	    -28.35898930	     -1.75282351	     68.89444929	     47.57576161	      0.00000000	      0.00000000
     12.89864286	     -3.80929707	     -3.59278684	    -15.45704636	      0.91226151	      0.92534199	      0.47317980	     25.34442801	      0.95627305	     -6.84957660	     18.44059492	     18.44059492	      5.97994922	      6.08681846	      2.72082941	      4.49443398	     -1.06883984	    -13.25184331	     19.02427127	     19.02427127	     19.89215164	    -16.67869344	      4.92863290	    -11.55159968	      9.32486551	      1.29246574	    -20.24868312	    -10.21783734	    -26.12059205	     25.93623667	     47.28204283	      0.00000000	      0.00000000	     40.47835695	    -28.59549412	     -3.82316964	     71.02909394	     47.77198868	      0.00000000	      0.00000000
     12.91985714	     -3.90417582	     -3.44304545	    -15.81915676	      0.91197796	      0.92405993	      0.47664075	     25.10177264	      1.09426573	     -7.16422223	     17.49286998	     17.49286998	      5.46291247	      6.91534362	      2.87491848	      4.03506117	     -1.03275086	    -13.63211000	     18.88726327	     18.88726327	     20.22099109	    -16.57025333	      4.71288198	    -11.41067403	      9.24077024	      1.45402977	    -20.10464225	    -10.09352749	    -26.08272592	     25.93023569	     47.27476927	      0.00000000	      0.00000000	     41.55782210	    -28.75915006	     -4.18902000	     71.82010526	     47.81972263	      0.00000000	      0.00000000
     12.94107143	     -4.10446725	     -3.33558992	    -16.13832424	      0.91198253	      0.92273774	      0.48032789	     25.13171196	      1.26918410	     -7.31121295	     17.33201903	     17.33201903	      5.10381410	      7.15772012	      2.82710985	      3.64571043	     -1.06545788	    -13.91932363	     18.71984901	     18.71984901	     20.51148716	    -16.55182787	      4.60312859	    -11.14281960	      9.27905523	      1.59262843	    -19.85301158	    -10.08314829	    -26.06690328	     25.99765895	     47.27075518	      0.00000000	      0.00000000	     42.39234259	    -28.98481554	     -4.48714902	     72.32989854	     47.85520246	      0.00000000	      0.00000000
     12.96228571	     -4.26279919	     -3.28293497	    -16.35650156	      0.91246640	      0.92170697	      0.48425247	     25.03497313	      1.45827831	     -7.43212463	     17.44262507	     17.44262507	      4.87693720	      7.18088785	      2.69133715	      3.16577731	     -1.14843458	    -14.10770487	     18.55531392	     18.55531392	     20.81835132	    -16.53060852	      4.51210911	    -10.85250122	      9.37608603	      1.68896600	    -19.54959032	    -10.06148594	    -26.04818066	     26.08089111	     47.26694501	      0.00000000	      0.00000000	     42.88850192	    -29.01791820	     -4.67809563	     72.71704723	     47.87856356	      0.00000000	      0.00000000
     12.98350000	     -4.19871393	     -3.22719760	    -16.51743654	      0.91348985	      0.92108814	      0.48847812	     24.53155257	      1.65519302	     -7.16124830	     17.39711633	     17.39711633	      3.08085188	      6.21347440	     -2.71132527	      2.25145139	     -1.21304213	    -14.68386112	     18.07816003	     18.07816003	     20.94797074	    -15.79008583	      3.87869935	    -10.93045832	      9.36995480	      1.12097189	    -18.55460343	    -10.24877495	    -26.10564583	     25.74850122	     47.26185443	      0.00000000	      0.00000000	     41.99019077	    -28.95374754	     -7.92550567	     75.91226916	     48.14279796	      0.00000000	      0.00000000
     13.00471429	     -4.27479116	     -3.16917943	    -16.61750714	      0.91452407	      0.92055058	      0.49286462	     24.49225823	      1.81045025	     -6.90711547	     18.24113623	     18.24113623	      3.20789951	      5.52257007	     -3.25559330	      1.53045229	     -1.26470018	    -14.84504215	     17.65651878	     17.65651878	     21.10233717	    -15.61024301	      3.97250144	    -10.76422520	      9.41390686	      1.24855466	    -18.09756097	    -10.30114545	    -26.05775701	     25.78321555	     47.25635652	      0.00000000	      0.00000000	     42.28774861	    -28.97216757	     -7.99933416	     76.25375158	     48.15540560	      0.00000000	      0.00000000
     13.02592857	     -4.40476552	     -3.18931337	    -16.61499809	      0.91572562	      0.92022520	      0.49741079	     24.38903417	      2.04741455	     -6.69115528	     19.01076183	     19.01076183	      3.42048974	      4.81070483	     -3.71096278	      0.90229682	     -1.45412040	    -14.93888504	     17.35071258	     17.35071258	     21.21844816	    -15.42694381	      4.07296967	    -10.54390760	      9.59727349	      1.30181947	    -17.65454125	    -10.39282980	    -26.03549598	     25.88466632	     47.25163046	      0.00000000	      0.00000000	     42.40282396	    -28.87970440	     -8.11073098	     76.57207940	     48.16890434	      0.00000000	      0.00000000
